# xmcd
#
# Track frame offsets:
#	150
#	16572
#	28811
#	40100
#	52740
#	68298
#	84584
#	97743
#	108759
#	122655
#	134640
#	145501
#	158366
#
# Disc length: 2355
#
# Revision: 1
# Processed by: cddbd v1.5.1PL0 Copyright (c) Steve Scherf et al.
# Submitted via: CDex 1.51
# Normalized: r0:DSETVAR1,TDELIM( - )
#
DISCID=8909310d
DTITLE=Various Artist - Blues, The Ultimate Collection
DYEAR=1900
DGENRE=Blues
TTITLE0=Otis Rush - Can't Stop Baby
TTITLE1=Tina Turner - Ya-ya
TTITLE2=The Platters - Smoke Gets In Your Eyes
TTITLE3=The Little Tommy Tucker - Hi Hell Sneakers
TTITLE4=B.B. King - The Letter
TTITLE5=Ray Charles - Georgia On My Mind
TTITLE6=Duke Ellington - C Jam Blues
TTITLE7=Hot Fussion Blues - My Underclothes Aren't Red
TTITLE8=Little Milton - I'm Gonna Move To The Outskirt Of Town
TTITLE9=Little Milton - Losin' Hand
TTITLE10=B.B. King - Recession Blues
TTITLE11=Muddy Waters - I'm Your Hoochie Coochie Man
TTITLE12=Eric Bell - Standing In The Middle
EXTD=
EXTT0=
EXTT1=
EXTT2=
EXTT3=
EXTT4=
EXTT5=
EXTT6=
EXTT7=
EXTT8=
EXTT9=
EXTT10=
EXTT11=
EXTT12=
PLAYORDER=
